<svg width="90" height="177" viewBox="0 0 90 177" fill="none" xmlns="http://www.w3.org/2000/svg">
<path d="M14.9981 36.9124C14.9879 45.36 14.9253 53.8081 14.9985 62.2551C15.0211 64.8771 16.1022 67.2063 17.9633 69.0951C20.7346 71.9077 23.5422 74.6844 26.332 77.4787C29.4558 80.6075 31.3073 84.3925 31.4658 88.7895C31.6512 93.9297 31.645 99.0876 31.449 104.227C31.2874 108.462 29.4644 112.118 26.5194 115.167C24.717 117.033 22.842 118.829 21.0079 120.648C23.8514 124.042 23.7256 126.675 20.6532 129.753C19.0289 131.38 17.4161 133.019 15.7737 134.628C13.1448 137.203 9.87029 137.207 7.27672 134.644C5.46338 132.853 3.65777 131.053 1.87068 129.236C-0.630026 126.692 -0.623108 123.417 1.88882 120.857C3.56895 119.145 5.27737 117.46 6.97537 115.765C9.76846 112.977 12.5757 112.819 15.7637 115.405C18.1432 112.661 21.4234 110.686 22.9893 107.241C23.6499 105.788 24.0311 104.099 24.0902 102.501C24.2414 98.4076 24.1599 94.3047 24.1343 90.2058C24.116 87.2805 23.0706 84.7581 20.9967 82.6798C18.2429 79.9202 15.4739 77.1756 12.7313 74.405C9.34151 70.9806 7.59344 66.7971 7.53089 62.0267C7.42404 53.88 7.42984 45.73 7.52854 37.5831C7.58632 32.8134 9.28527 28.6084 12.6874 25.1908C19.3872 18.4606 26.168 11.81 32.8097 5.02309C39.2917 -1.60056 50.1627 -1.70253 56.7197 4.88922C63.5227 11.7283 70.3981 18.4958 77.1584 25.3767C80.4372 28.7141 82.0849 32.8422 82.1066 37.5389C82.144 45.6369 82.1329 53.7352 82.111 61.8333C82.0979 66.6998 80.355 70.8934 76.9652 74.3708C74.2441 77.1623 71.46 79.8923 68.7027 82.6485C66.6682 84.6822 65.5827 87.1335 65.5636 90.0125C65.5354 94.2614 65.5437 98.5106 65.5597 102.76C65.5705 105.644 66.6498 108.095 68.6681 110.141C70.4202 111.918 72.173 113.694 73.6066 115.147C75.4149 114.582 76.9182 113.774 78.4376 113.743C79.6977 113.717 81.2159 114.321 82.1987 115.147C84.3713 116.974 86.3241 119.073 88.2825 121.14C90.5025 123.484 90.4411 126.746 88.1809 129.085C86.3055 131.025 84.3955 132.934 82.4578 134.812C80.0328 137.163 76.7331 137.142 74.2839 134.771C72.5963 133.138 71.0811 131.301 69.2672 129.828C66.6243 127.683 66.2911 123.357 68.7774 120.716C67.1249 119.093 65.4703 117.456 63.8023 115.832C59.9545 112.087 58.034 107.56 58.1102 102.164C58.1689 98.0161 58.0803 93.8659 58.1328 89.7175C58.1916 85.072 59.8956 81.0551 63.1082 77.7236C65.8833 74.8458 68.7601 72.0663 71.5753 69.2267C73.5981 67.1864 74.6529 64.7231 74.6547 61.8365C74.6596 53.7883 74.6605 45.7401 74.6542 37.692C74.6519 34.8045 73.5926 32.3402 71.5633 30.3057C64.9626 23.6883 58.3605 17.0723 51.7378 10.4769C47.5647 6.32098 42.0758 6.33976 37.92 10.491C31.4842 16.9199 25.0849 23.3857 18.6061 29.7708C16.7537 31.5964 15.59 33.7012 15.0187 36.3984C14.9764 36.6952 14.9873 36.8038 14.9981 36.9124Z" fill="#FEFEFF"/>
<path d="M40.58 53.5995C38.718 51.7186 36.8516 49.842 34.9951 47.9557C32.3537 45.2719 32.3303 42.0272 34.9536 39.3484C36.7012 37.5638 38.4667 35.7962 40.2518 34.0491C42.8084 31.5467 46.1125 31.5016 48.6604 33.9593C50.5298 35.7625 52.3655 37.6025 54.1703 39.4704C56.6474 42.0343 56.6146 45.2982 54.1043 47.8745C52.431 49.5919 50.6769 51.2324 49.049 52.9908C48.5984 53.4776 48.2289 54.2625 48.2281 54.911C48.1887 87.8875 48.1893 120.864 48.2243 153.84C48.225 154.449 48.5468 155.192 48.9662 155.641C50.6706 157.465 52.4877 159.183 54.2332 160.969C56.5787 163.37 56.576 166.726 54.2212 169.137C52.3711 171.031 50.4976 172.902 48.6049 174.754C46.1182 177.186 42.8405 177.161 40.35 174.705C38.465 172.846 36.5858 170.98 34.7355 169.086C32.4388 166.736 32.4265 163.382 34.7129 161.037C36.6305 159.071 38.5929 157.148 40.6536 155.079C40.7841 154.852 40.7965 154.753 40.8089 154.653C40.8181 148.905 40.8349 143.156 40.8351 137.408C40.8362 109.764 40.8327 82.1202 40.848 54.2493C40.7702 53.8815 40.6751 53.7405 40.58 53.5995Z" fill="#FEFFFF"/>
</svg>
