<svg width="118" height="161" viewBox="0 0 118 161" fill="none" xmlns="http://www.w3.org/2000/svg">
<mask id="path-1-outside-1_218_11" maskUnits="userSpaceOnUse" x="12.6701" y="-0.610764" width="93" height="127" fill="black">
<rect fill="white" x="12.6701" y="-0.610764" width="93" height="127"/>
<path d="M29.216 71.2551C29.1429 62.8081 29.2054 54.3601 29.2156 45.9124C29.2048 45.8038 29.1939 45.6952 29.2363 45.3984C29.8075 42.7012 30.9712 40.5964 32.8236 38.7708C39.3025 32.3857 45.7017 25.9199 52.1375 19.491C56.2933 15.3398 61.7822 15.321 65.9553 19.4769C72.578 26.0723 79.1801 32.6883 85.7808 39.3057C87.8101 41.3402 88.8694 43.8046 88.8717 46.692C88.878 54.7402 88.8771 62.7883 88.8722 70.8365C88.8704 73.7231 88.8722 75.3892 88.8722 77.8892V87.8892V99.2058C88.8197 103.354 88.9308 107.241 88.8722 111.389V113.661C88.8722 115.72 90.5414 117.389 92.6004 117.389C94.6594 117.389 96.3285 115.72 96.3285 113.661V113.227C96.3125 108.978 96.3004 103.455 96.3285 99.2058C96.3476 96.3268 96.3047 94.9704 96.3285 91.8251C96.3524 88.6798 96.3285 87.8251 96.3285 83.3251C96.3285 78.2267 96.3154 75.6998 96.3285 70.8333C96.3504 62.7352 96.3615 54.6369 96.3241 46.5389C96.3024 41.8423 94.6547 37.7141 91.3759 34.3767C84.6157 27.4959 77.7402 20.7283 70.9372 13.8892C64.3802 7.29749 53.5092 7.39946 47.0272 14.0231C40.3855 20.81 33.6047 27.4606 26.9049 34.1908C23.5028 37.6084 21.8038 41.8134 21.7461 46.5831C21.6473 54.73 21.6415 62.88 21.7484 71.0267C21.811 75.7971 21.7484 80.1716 21.7484 83.3251L21.7484 90.3261C21.7484 93.8892 21.7301 96.2805 21.7484 99.2058C21.774 103.305 21.7484 107.389 21.7484 111.501V113.655C21.7484 115.717 23.4201 117.389 25.4822 117.389C27.5443 117.389 29.216 115.718 29.216 113.655V113.227L29.216 98.3892L29.216 87.8251V78.8892C29.216 76.3892 29.2386 73.8771 29.216 71.2551Z"/>
</mask>
<path d="M29.216 71.2551C29.1429 62.8081 29.2054 54.3601 29.2156 45.9124C29.2048 45.8038 29.1939 45.6952 29.2363 45.3984C29.8075 42.7012 30.9712 40.5964 32.8236 38.7708C39.3025 32.3857 45.7017 25.9199 52.1375 19.491C56.2933 15.3398 61.7822 15.321 65.9553 19.4769C72.578 26.0723 79.1801 32.6883 85.7808 39.3057C87.8101 41.3402 88.8694 43.8046 88.8717 46.692C88.878 54.7402 88.8771 62.7883 88.8722 70.8365C88.8704 73.7231 88.8722 75.3892 88.8722 77.8892V87.8892V99.2058C88.8197 103.354 88.9308 107.241 88.8722 111.389V113.661C88.8722 115.72 90.5414 117.389 92.6004 117.389C94.6594 117.389 96.3285 115.72 96.3285 113.661V113.227C96.3125 108.978 96.3004 103.455 96.3285 99.2058C96.3476 96.3268 96.3047 94.9704 96.3285 91.8251C96.3524 88.6798 96.3285 87.8251 96.3285 83.3251C96.3285 78.2267 96.3154 75.6998 96.3285 70.8333C96.3504 62.7352 96.3615 54.6369 96.3241 46.5389C96.3024 41.8423 94.6547 37.7141 91.3759 34.3767C84.6157 27.4959 77.7402 20.7283 70.9372 13.8892C64.3802 7.29749 53.5092 7.39946 47.0272 14.0231C40.3855 20.81 33.6047 27.4606 26.9049 34.1908C23.5028 37.6084 21.8038 41.8134 21.7461 46.5831C21.6473 54.73 21.6415 62.88 21.7484 71.0267C21.811 75.7971 21.7484 80.1716 21.7484 83.3251L21.7484 90.3261C21.7484 93.8892 21.7301 96.2805 21.7484 99.2058C21.774 103.305 21.7484 107.389 21.7484 111.501V113.655C21.7484 115.717 23.4201 117.389 25.4822 117.389C27.5443 117.389 29.216 115.718 29.216 113.655V113.227L29.216 98.3892L29.216 87.8251V78.8892C29.216 76.3892 29.2386 73.8771 29.216 71.2551Z" fill="white"/>
<path d="M29.2156 45.9124L38.2156 45.9233L38.2162 45.4685L38.1709 45.0159L29.2156 45.9124ZM29.216 71.2551L38.2156 71.1772L38.2156 71.1772L29.216 71.2551ZM21.7484 99.2058L12.7486 99.262L12.7486 99.2621L21.7484 99.2058ZM21.7484 71.0267L30.7476 70.9087L30.7476 70.9087L21.7484 71.0267ZM21.7461 46.5831L30.7454 46.6921L30.7454 46.6921L21.7461 46.5831ZM26.9049 34.1908L20.5265 27.8413L20.5265 27.8413L26.9049 34.1908ZM47.0272 14.0231L40.5948 7.72829L40.5948 7.72834L47.0272 14.0231ZM70.9372 13.8892L77.318 7.54212L77.318 7.54211L70.9372 13.8892ZM91.3759 34.3767L97.7959 28.0693L97.7959 28.0693L91.3759 34.3767ZM96.3241 46.5389L87.3242 46.5805L87.3242 46.5805L96.3241 46.5389ZM96.3285 70.8333L105.328 70.8576L105.328 70.8576L96.3285 70.8333ZM96.3285 99.2058L105.328 99.2655L105.328 99.2655L96.3285 99.2058ZM96.3285 113.227H105.329V113.21L105.328 113.194L96.3285 113.227ZM88.8722 111.389L79.8731 111.262L79.8722 111.326V111.389H88.8722ZM88.8722 99.2058L97.8715 99.3198L97.8722 99.2628V99.2058H88.8722ZM88.8722 70.8365L97.8722 70.842L97.8722 70.842L88.8722 70.8365ZM88.8717 46.692L97.8717 46.685L97.8717 46.685L88.8717 46.692ZM85.7808 39.3057L92.1528 32.9498L92.1528 32.9498L85.7808 39.3057ZM65.9553 19.4769L59.6046 25.854L59.6046 25.8541L65.9553 19.4769ZM52.1375 19.491L45.7771 13.1236L45.777 13.1236L52.1375 19.491ZM32.8236 38.7708L26.5062 32.3606L26.5062 32.3606L32.8236 38.7708ZM29.2363 45.3984L20.4316 43.5336L20.3691 43.8284L20.3265 44.1268L29.2363 45.3984ZM20.2156 45.9015C20.2055 54.2744 20.1427 62.8273 20.2163 71.333L38.2156 71.1772C38.143 62.7889 38.2053 54.4458 38.2156 45.9233L20.2156 45.9015ZM20.2163 71.3329C20.2386 73.9099 20.216 76.2768 20.216 78.8892H38.216C38.216 76.5017 38.2387 73.8442 38.2156 71.1772L20.2163 71.3329ZM20.216 78.8892L20.216 87.8251H38.216L38.216 78.8892H20.216ZM20.216 87.8251V98.3892H38.216V87.8251H20.216ZM20.216 98.3892L20.216 113.227H38.216V98.3892H20.216ZM30.7484 113.655V111.501H12.7484L12.7484 113.655H30.7484ZM30.7484 111.501C30.7484 107.469 30.774 103.281 30.7482 99.1496L12.7486 99.2621C12.774 103.328 12.7484 107.31 12.7484 111.501H30.7484ZM30.7482 99.1496C30.7302 96.2567 30.7484 93.9706 30.7484 90.3261H12.7484C12.7484 93.8078 12.7301 96.3043 12.7486 99.262L30.7482 99.1496ZM30.7484 90.3261V83.3251H12.7484V90.3261H30.7484ZM30.7484 83.3251C30.7484 80.3532 30.811 75.7449 30.7476 70.9087L12.7492 71.1448C12.8109 75.8493 12.7484 79.99 12.7484 83.3251H30.7484ZM30.7476 70.9087C30.6419 62.8448 30.6475 54.7708 30.7454 46.6921L12.7467 46.4741C12.6472 54.6892 12.6412 62.9153 12.7492 71.1448L30.7476 70.9087ZM30.7454 46.6921C30.7757 44.1888 31.5861 42.2452 33.2833 40.5404L20.5265 27.8413C15.4194 32.9716 12.8319 39.4381 12.7467 46.4741L30.7454 46.6921ZM33.2833 40.5404C39.8672 33.9265 46.7965 27.1266 53.4596 20.3179L40.5948 7.72834C33.9745 14.4934 27.3422 20.9947 20.5265 27.8413L33.2833 40.5404ZM53.4596 20.3179C56.4642 17.2476 61.5707 17.2348 64.5565 20.2364L77.318 7.54211C67.1897 -2.63983 50.5542 -2.44869 40.5948 7.72829L53.4596 20.3179ZM64.5564 20.2364C71.4677 27.1843 78.2029 33.8107 84.9559 40.6842L97.7959 28.0693C91.0284 21.1811 84.0127 14.2724 77.318 7.54212L64.5564 20.2364ZM84.9559 40.6841C86.5385 42.2949 87.313 44.1523 87.3242 46.5805L105.324 46.4973C105.292 39.5322 102.771 33.1332 97.7959 28.0693L84.9559 40.6841ZM87.3242 46.5805C87.3615 54.6447 87.3504 62.7166 87.3286 70.809L105.328 70.8576C105.35 62.7538 105.362 54.629 105.324 46.4973L87.3242 46.5805ZM87.3286 70.809C87.3154 75.6883 87.3285 78.2673 87.3285 83.3251H105.329C105.329 78.1862 105.315 75.7113 105.328 70.8576L87.3286 70.809ZM87.3285 83.3251C87.3285 87.9421 87.3524 88.6468 87.3288 91.7569L105.328 91.8934C105.352 88.7129 105.329 87.7082 105.329 83.3251H87.3285ZM87.3288 91.7569C87.3164 93.3867 87.3214 94.5568 87.3268 95.6596C87.3322 96.754 87.3379 97.765 87.3287 99.1462L105.328 99.2655C105.338 97.7677 105.332 96.661 105.327 95.5711C105.321 94.4896 105.317 93.4089 105.328 91.8934L87.3288 91.7569ZM87.3287 99.1462C87.3002 103.446 87.3126 109.011 87.3286 113.261L105.328 113.194C105.312 108.946 105.301 103.463 105.328 99.2655L87.3287 99.1462ZM97.8713 111.516C97.9022 109.334 97.8881 107.234 97.8743 105.235C97.8603 103.211 97.8465 101.291 97.8715 99.3198L79.8729 99.0919C79.8454 101.269 79.8609 103.367 79.8747 105.36C79.8887 107.379 79.9009 109.296 79.8731 111.262L97.8713 111.516ZM97.8722 99.2058V87.8892H79.8722V99.2058H97.8722ZM97.8722 87.8892V77.8892L79.8722 77.8892V87.8892H97.8722ZM97.8722 77.8892C97.8722 75.3798 97.8704 73.7258 97.8722 70.842L79.8722 70.831C79.8704 73.7205 79.8722 75.3986 79.8722 77.8892L97.8722 77.8892ZM97.8722 70.842C97.8771 62.7909 97.878 54.7384 97.8717 46.685L79.8717 46.699C79.878 54.742 79.8771 62.7858 79.8722 70.831L97.8722 70.842ZM97.8717 46.685C97.8675 41.3359 95.8052 36.6115 92.1528 32.9498L79.4087 45.6616C79.6806 45.9342 79.7641 46.106 79.7924 46.1734C79.8186 46.2355 79.8714 46.3802 79.8717 46.6991L97.8717 46.685ZM92.1528 32.9498C85.5526 26.3329 78.9408 19.707 72.3061 13.0998L59.6046 25.8541C66.2153 32.4375 72.8076 39.0437 79.4088 45.6616L92.1528 32.9498ZM72.3061 13.0998C68.7855 9.59377 64.1629 7.36005 59.0246 7.3688C53.8896 7.37754 49.2805 9.62398 45.7771 13.1236L58.498 25.8585C58.8381 25.5188 59.0676 25.4 59.1369 25.3691C59.1973 25.342 59.1604 25.3686 59.0552 25.3688C58.9498 25.3689 58.9109 25.3424 58.9683 25.3679C59.0348 25.3974 59.2633 25.5142 59.6046 25.854L72.3061 13.0998ZM45.777 13.1236C39.291 19.6027 32.958 26.0022 26.5062 32.3606L39.1411 45.1809C45.647 38.7692 52.1125 32.2371 58.498 25.8584L45.777 13.1236ZM26.5062 32.3606C23.3755 35.4461 21.3621 39.1401 20.4316 43.5336L38.0409 47.2633C38.2529 46.2624 38.5669 45.7468 39.1411 45.1809L26.5062 32.3606ZM20.3265 44.1268C20.1727 45.2045 20.1839 46.0443 20.2604 46.8089L38.1709 45.0159C38.1667 44.9737 38.1806 45.1047 38.1907 45.265C38.2023 45.4497 38.2082 45.6522 38.2049 45.8667C38.1985 46.2778 38.16 46.5719 38.146 46.6701L20.3265 44.1268ZM38.216 113.655V113.227H20.216V113.655H38.216ZM79.8722 111.389V113.661H97.8722V111.389H79.8722ZM105.329 113.661V113.227H87.3285V113.661H105.329ZM79.8722 113.661C79.8722 120.691 85.5708 126.389 92.6004 126.389V108.389C95.5119 108.389 97.8722 110.75 97.8722 113.661H79.8722ZM25.4822 126.389C32.5149 126.389 38.216 120.688 38.216 113.655H20.216C20.216 110.747 22.5737 108.389 25.4822 108.389V126.389ZM92.6004 126.389C99.63 126.389 105.329 120.691 105.329 113.661H87.3285C87.3285 110.75 89.6888 108.389 92.6004 108.389V126.389ZM12.7484 113.655C12.7484 120.688 18.4491 126.389 25.4822 126.389V108.389C28.391 108.389 30.7484 110.747 30.7484 113.655H12.7484Z" fill="white" mask="url(#path-1-outside-1_218_11)"/>
<circle cx="25" cy="135.389" r="25" fill="white"/>
<circle cx="93" cy="135.389" r="25" fill="white"/>
<circle cx="59" cy="87.3893" r="15" fill="white"/>
</svg>
