<svg width="500" height="169" viewBox="0 0 500 169" fill="none" xmlns="http://www.w3.org/2000/svg">
<g filter="url(#filter0_d_206_84)">
<mask id="path-1-outside-1_206_84" maskUnits="userSpaceOnUse" x="268.67" y="-4.57764e-05" width="93" height="127" fill="black">
<rect fill="white" x="268.67" y="-4.57764e-05" width="93" height="127"/>
<path d="M285.216 71.8658C285.143 63.4188 285.205 54.9708 285.216 46.5231C285.205 46.4145 285.194 46.3059 285.236 46.0092C285.808 43.312 286.971 41.2072 288.824 39.3815C295.302 32.9964 301.702 26.5306 308.138 20.1017C312.293 15.9505 317.782 15.9317 321.955 20.0877C328.578 26.683 335.18 33.299 341.781 39.9164C343.81 41.9509 344.869 44.4153 344.872 47.3027C344.878 55.3509 344.877 63.3991 344.872 71.4472C344.87 74.3339 344.872 76 344.872 78.5V88.5V99.8166C344.82 103.965 344.931 107.852 344.872 112V114.272C344.872 116.331 346.541 118 348.6 118C350.659 118 352.329 116.331 352.329 114.272V113.838C352.313 109.589 352.3 104.065 352.329 99.8166C352.348 96.9375 352.305 95.5811 352.329 92.4359C352.352 89.2906 352.329 88.4359 352.329 83.9359C352.329 78.8375 352.315 76.3106 352.329 71.444C352.35 63.3459 352.362 55.2476 352.324 47.1496C352.302 42.453 350.655 38.3248 347.376 34.9874C340.616 28.1066 333.74 21.339 326.937 14.5C320.38 7.9082 309.509 8.01018 303.027 14.6338C296.386 21.4207 289.605 28.0713 282.905 34.8016C279.503 38.2191 277.804 42.4242 277.746 47.1938C277.647 55.3407 277.642 63.4907 277.748 71.6375C277.811 76.4078 277.748 80.7823 277.748 83.9359V90.9368C277.748 94.5 277.73 96.8912 277.748 99.8166C277.774 103.915 277.748 108 277.748 112.112V114.266C277.748 116.328 279.42 118 281.482 118C283.544 118 285.216 116.328 285.216 114.266V113.838V99V88.4359V79.5C285.216 77 285.239 74.4878 285.216 71.8658Z"/>
</mask>
<path d="M285.216 71.8658C285.143 63.4188 285.205 54.9708 285.216 46.5231C285.205 46.4145 285.194 46.3059 285.236 46.0092C285.808 43.312 286.971 41.2072 288.824 39.3815C295.302 32.9964 301.702 26.5306 308.138 20.1017C312.293 15.9505 317.782 15.9317 321.955 20.0877C328.578 26.683 335.18 33.299 341.781 39.9164C343.81 41.9509 344.869 44.4153 344.872 47.3027C344.878 55.3509 344.877 63.3991 344.872 71.4472C344.87 74.3339 344.872 76 344.872 78.5V88.5V99.8166C344.82 103.965 344.931 107.852 344.872 112V114.272C344.872 116.331 346.541 118 348.6 118C350.659 118 352.329 116.331 352.329 114.272V113.838C352.313 109.589 352.3 104.065 352.329 99.8166C352.348 96.9375 352.305 95.5811 352.329 92.4359C352.352 89.2906 352.329 88.4359 352.329 83.9359C352.329 78.8375 352.315 76.3106 352.329 71.444C352.35 63.3459 352.362 55.2476 352.324 47.1496C352.302 42.453 350.655 38.3248 347.376 34.9874C340.616 28.1066 333.74 21.339 326.937 14.5C320.38 7.9082 309.509 8.01018 303.027 14.6338C296.386 21.4207 289.605 28.0713 282.905 34.8016C279.503 38.2191 277.804 42.4242 277.746 47.1938C277.647 55.3407 277.642 63.4907 277.748 71.6375C277.811 76.4078 277.748 80.7823 277.748 83.9359V90.9368C277.748 94.5 277.73 96.8912 277.748 99.8166C277.774 103.915 277.748 108 277.748 112.112V114.266C277.748 116.328 279.42 118 281.482 118C283.544 118 285.216 116.328 285.216 114.266V113.838V99V88.4359V79.5C285.216 77 285.239 74.4878 285.216 71.8658Z" fill="white"/>
<path d="M285.216 46.5231L294.216 46.534L294.216 46.0792L294.171 45.6266L285.216 46.5231ZM285.216 71.8658L294.216 71.788L294.216 71.7879L285.216 71.8658ZM277.748 99.8166L268.749 99.8728L268.749 99.8728L277.748 99.8166ZM277.748 71.6375L286.748 71.5194L286.748 71.5194L277.748 71.6375ZM277.746 47.1938L286.745 47.3028L286.745 47.3028L277.746 47.1938ZM282.905 34.8016L276.527 28.452L276.527 28.452L282.905 34.8016ZM303.027 14.6338L296.595 8.339L296.595 8.33905L303.027 14.6338ZM326.937 14.5L333.318 8.15284L333.318 8.15283L326.937 14.5ZM347.376 34.9874L353.796 28.68L353.796 28.68L347.376 34.9874ZM352.324 47.1496L343.324 47.1912L343.324 47.1912L352.324 47.1496ZM352.329 71.444L361.328 71.4683L361.328 71.4683L352.329 71.444ZM352.329 99.8166L361.328 99.8762L361.328 99.8762L352.329 99.8166ZM352.329 113.838H361.329V113.821L361.328 113.804L352.329 113.838ZM344.872 112L335.873 111.873L335.872 111.936V112H344.872ZM344.872 99.8166L353.871 99.9305L353.872 99.8735V99.8166H344.872ZM344.872 71.4472L353.872 71.4528L353.872 71.4527L344.872 71.4472ZM344.872 47.3027L353.872 47.2957L353.872 47.2957L344.872 47.3027ZM341.781 39.9164L348.153 33.5605L348.153 33.5605L341.781 39.9164ZM321.955 20.0877L315.605 26.4648L315.605 26.4648L321.955 20.0877ZM308.138 20.1017L301.777 13.7343L301.777 13.7343L308.138 20.1017ZM288.824 39.3815L282.506 32.9713L282.506 32.9714L288.824 39.3815ZM285.236 46.0092L276.432 44.1443L276.369 44.4391L276.327 44.7375L285.236 46.0092ZM276.216 46.5122C276.206 54.8851 276.143 63.438 276.216 71.9437L294.216 71.7879C294.143 63.3996 294.205 55.0565 294.216 46.534L276.216 46.5122ZM276.216 71.9436C276.239 74.5207 276.216 76.8875 276.216 79.5H294.216C294.216 77.1124 294.239 74.4549 294.216 71.788L276.216 71.9436ZM276.216 79.5V88.4359H294.216V79.5H276.216ZM276.216 88.4359V99H294.216V88.4359H276.216ZM276.216 99V113.838H294.216V99H276.216ZM286.748 114.266V112.112H268.748V114.266H286.748ZM286.748 112.112C286.748 108.08 286.774 103.892 286.748 99.7603L268.749 99.8728C268.774 103.939 268.748 107.92 268.748 112.112H286.748ZM286.748 99.7604C286.73 96.8674 286.748 94.5814 286.748 90.9368H268.748C268.748 94.4185 268.73 96.915 268.749 99.8728L286.748 99.7604ZM286.748 90.9368V83.9359H268.748V90.9368H286.748ZM286.748 83.9359C286.748 80.9639 286.811 76.3556 286.748 71.5194L268.749 71.7555C268.811 76.46 268.748 80.6007 268.748 83.9359H286.748ZM286.748 71.5194C286.642 63.4555 286.648 55.3815 286.745 47.3028L268.747 47.0848C268.647 55.2999 268.641 63.526 268.749 71.7555L286.748 71.5194ZM286.745 47.3028C286.776 44.7995 287.586 42.8559 289.283 41.1511L276.527 28.452C271.419 33.5823 268.832 40.0488 268.747 47.0848L286.745 47.3028ZM289.283 41.1511C295.867 34.5372 302.797 27.7374 309.46 20.9286L296.595 8.33905C289.974 15.1041 283.342 21.6054 276.527 28.452L289.283 41.1511ZM309.46 20.9286C312.464 17.8583 317.571 17.8455 320.556 20.8471L333.318 8.15283C323.19 -2.02911 306.554 -1.83797 296.595 8.339L309.46 20.9286ZM320.556 20.8471C327.468 27.795 334.203 34.4214 340.956 41.2949L353.796 28.68C347.028 21.7918 340.013 14.8831 333.318 8.15284L320.556 20.8471ZM340.956 41.2949C342.538 42.9057 343.313 44.763 343.324 47.1912L361.324 47.108C361.292 40.143 358.771 33.7439 353.796 28.68L340.956 41.2949ZM343.324 47.1912C343.361 55.2554 343.35 63.3273 343.329 71.4197L361.328 71.4683C361.35 63.3645 361.362 55.2398 361.324 47.108L343.324 47.1912ZM343.329 71.4197C343.315 76.2991 343.329 78.8781 343.329 83.9359H361.329C361.329 78.7969 361.315 76.3221 361.328 71.4683L343.329 71.4197ZM343.329 83.9359C343.329 88.5528 343.352 89.2575 343.329 92.3676L361.328 92.5041C361.352 89.3236 361.329 88.3189 361.329 83.9359H343.329ZM343.329 92.3676C343.316 93.9974 343.321 95.1676 343.327 96.2703C343.332 97.3647 343.338 98.3757 343.329 99.7569L361.328 99.8762C361.338 98.3784 361.332 97.2717 361.327 96.1818C361.321 95.1003 361.317 94.0196 361.328 92.5041L343.329 92.3676ZM343.329 99.7569C343.3 104.057 343.313 109.621 343.329 113.872L361.328 113.804C361.312 109.557 361.301 104.074 361.328 99.8762L343.329 99.7569ZM353.871 112.127C353.902 109.945 353.888 107.845 353.874 105.846C353.86 103.821 353.847 101.901 353.871 99.9305L335.873 99.7026C335.845 101.88 335.861 103.978 335.875 105.971C335.889 107.989 335.901 109.907 335.873 111.873L353.871 112.127ZM353.872 99.8166V88.5H335.872V99.8166H353.872ZM353.872 88.5V78.5L335.872 78.5V88.5H353.872ZM353.872 78.5C353.872 75.9906 353.87 74.3365 353.872 71.4528L335.872 71.4417C335.87 74.3312 335.872 76.0094 335.872 78.5L353.872 78.5ZM353.872 71.4527C353.877 63.4016 353.878 55.3491 353.872 47.2957L335.872 47.3098C335.878 55.3527 335.877 63.3965 335.872 71.4417L353.872 71.4527ZM353.872 47.2957C353.867 41.9467 351.805 37.2222 348.153 33.5605L335.409 46.2723C335.681 46.5449 335.764 46.7167 335.792 46.7841C335.819 46.8463 335.871 46.991 335.872 47.3098L353.872 47.2957ZM348.153 33.5605C341.553 26.9436 334.941 20.3178 328.306 13.7105L315.605 26.4648C322.215 33.0482 328.808 39.6545 335.409 46.2723L348.153 33.5605ZM328.306 13.7105C324.786 10.2045 320.163 7.97076 315.025 7.97951C309.89 7.98826 305.28 10.2347 301.777 13.7343L314.498 26.4692C314.838 26.1295 315.068 26.0108 315.137 25.9798C315.197 25.9528 315.16 25.9793 315.055 25.9795C314.95 25.9797 314.911 25.9531 314.968 25.9786C315.035 26.0081 315.263 26.1249 315.605 26.4648L328.306 13.7105ZM301.777 13.7343C295.291 20.2134 288.958 26.6129 282.506 32.9713L295.141 45.7917C301.647 39.3799 308.112 32.8478 314.498 26.4692L301.777 13.7343ZM282.506 32.9714C279.375 36.0568 277.362 39.7508 276.432 44.1443L294.041 47.874C294.253 46.8731 294.567 46.3575 295.141 45.7916L282.506 32.9714ZM276.327 44.7375C276.173 45.8152 276.184 46.655 276.26 47.4197L294.171 45.6266C294.167 45.5844 294.181 45.7154 294.191 45.8757C294.202 46.0604 294.208 46.2629 294.205 46.4774C294.198 46.8885 294.16 47.1826 294.146 47.2808L276.327 44.7375ZM294.216 114.266V113.838H276.216V114.266H294.216ZM335.872 112V114.272H353.872V112H335.872ZM361.329 114.272V113.838H343.329V114.272H361.329ZM335.872 114.272C335.872 121.301 341.571 127 348.6 127V109C351.512 109 353.872 111.36 353.872 114.272H335.872ZM281.482 127C288.515 127 294.216 121.299 294.216 114.266H276.216C276.216 111.358 278.574 109 281.482 109V127ZM348.6 127C355.63 127 361.329 121.301 361.329 114.272H343.329C343.329 111.36 345.689 109 348.6 109V127ZM268.748 114.266C268.748 121.298 274.449 127 281.482 127V109C284.391 109 286.748 111.358 286.748 114.266H268.748Z" fill="white" mask="url(#path-1-outside-1_206_84)"/>
<path d="M71.9908 40.0777C51.6554 40.0777 35.1317 56.5541 35.1317 77.1596C35.1317 97.4459 51.6554 113.942 71.9908 113.942H121.223V145H71.9908C34.4931 145 4 114.561 4 77.1596C4 39.4394 34.4931 9 71.9908 9H121.223V40.0777H71.9908ZM175.583 40.0777C169.876 40.0777 165.106 44.8252 165.106 50.8492C165.106 56.8733 169.876 61.6207 175.583 61.6207H204.5C227.689 61.6207 246.428 80.3312 246.428 103.151V103.47C246.428 126.29 227.689 145 204.5 145H133.975V113.942H204.5C210.527 113.942 215.296 109.175 215.296 103.47V103.151C215.296 97.4459 210.527 92.3793 204.5 92.3793H175.583C152.714 92.3793 133.975 73.988 133.975 50.8492C133.975 27.7105 152.714 9 175.903 9.31916H246.428V40.0777H175.583ZM447.087 9C474.088 9 496 31.2012 496 57.8307C496 84.7794 474.088 106.642 447.087 106.642H420.406V145H389.274V9H447.087ZM447.087 75.9029C456.926 75.9029 464.868 67.9639 464.868 57.8307C464.868 47.9968 456.926 40.0777 447.087 40.0777H420.406V75.9029H447.087Z" fill="white"/>
<circle cx="281" cy="136" r="25" fill="white"/>
<circle cx="349" cy="136" r="25" fill="white"/>
<circle cx="315" cy="88" r="15" fill="white"/>
</g>
<defs>
<filter id="filter0_d_206_84" x="0" y="0.610672" width="500" height="168.389" filterUnits="userSpaceOnUse" color-interpolation-filters="sRGB">
<feFlood flood-opacity="0" result="BackgroundImageFix"/>
<feColorMatrix in="SourceAlpha" type="matrix" values="0 0 0 0 0 0 0 0 0 0 0 0 0 0 0 0 0 0 127 0" result="hardAlpha"/>
<feOffset dy="4"/>
<feGaussianBlur stdDeviation="2"/>
<feComposite in2="hardAlpha" operator="out"/>
<feColorMatrix type="matrix" values="0 0 0 0 0 0 0 0 0 0 0 0 0 0 0 0 0 0 0.25 0"/>
<feBlend mode="normal" in2="BackgroundImageFix" result="effect1_dropShadow_206_84"/>
<feBlend mode="normal" in="SourceGraphic" in2="effect1_dropShadow_206_84" result="shape"/>
</filter>
</defs>
</svg>
