<svg width="492" height="178" viewBox="0 0 492 178" fill="none" xmlns="http://www.w3.org/2000/svg">
<path d="M282.323 37.5873C282.313 46.0349 282.251 54.483 282.324 62.9299C282.346 65.5519 283.427 67.8812 285.289 69.77C288.06 72.5826 290.867 75.3593 293.657 78.1536C296.781 81.2823 298.633 85.0674 298.791 89.4644C298.976 94.6046 298.97 99.7625 298.774 104.902C298.613 109.137 296.79 112.793 293.845 115.842C292.042 117.708 290.167 119.504 288.333 121.323C291.177 124.717 291.051 127.35 287.978 130.428C286.354 132.055 284.741 133.694 283.099 135.303C280.47 137.878 277.195 137.881 274.602 135.319C272.789 133.528 270.983 131.728 269.196 129.911C266.695 127.367 266.702 124.092 269.214 121.532C270.894 119.819 272.603 118.135 274.301 116.44C277.094 113.652 279.901 113.494 283.089 116.079C285.468 113.336 288.749 111.361 290.314 107.916C290.975 106.463 291.356 104.774 291.415 103.176C291.567 99.0825 291.485 94.9796 291.459 90.8807C291.441 87.9553 290.396 85.433 288.322 83.3547C285.568 80.5951 282.799 77.8505 280.057 75.0798C276.667 71.6555 274.919 67.4719 274.856 62.7016C274.749 54.5549 274.755 46.4049 274.854 38.258C274.912 33.4883 276.61 29.2833 280.013 25.8657C286.712 19.1355 293.493 12.4849 300.135 5.69797C306.617 -0.925675 317.488 -1.02765 324.045 5.5641C330.848 12.4032 337.723 19.1707 344.484 26.0516C347.762 29.3889 349.41 33.5171 349.432 38.2138C349.469 46.3117 349.458 54.41 349.436 62.5081C349.423 67.3747 347.68 71.5683 344.29 75.0457C341.569 77.8372 338.785 80.5672 336.028 83.3234C333.993 85.3571 332.908 87.8084 332.889 90.6874C332.861 94.9362 332.869 99.1854 332.885 103.434C332.896 106.319 333.975 108.77 335.993 110.816C337.745 112.593 339.498 114.369 340.932 115.822C342.74 115.257 344.243 114.449 345.763 114.418C347.023 114.392 348.541 114.996 349.524 115.822C351.697 117.648 353.649 119.747 355.608 121.815C357.828 124.159 357.766 127.421 355.506 129.76C353.631 131.7 351.721 133.609 349.783 135.487C347.358 137.838 344.058 137.817 341.609 135.446C339.921 133.812 338.406 131.976 336.592 130.503C333.95 128.358 333.616 124.032 336.103 121.391C334.45 119.768 332.795 118.131 331.127 116.507C327.28 112.762 325.359 108.235 325.435 102.839C325.494 98.691 325.405 94.5408 325.458 90.3924C325.517 85.7469 327.221 81.73 330.433 78.3985C333.209 75.5207 336.085 72.7412 338.9 69.9016C340.923 67.8612 341.978 65.398 341.98 62.5114C341.985 54.4632 341.986 46.415 341.979 38.3669C341.977 35.4794 340.918 33.0151 338.888 30.9805C332.288 24.3632 325.686 17.7471 319.063 11.1518C314.89 6.99586 309.401 7.01464 305.245 11.1659C298.809 17.5947 292.41 24.0605 285.931 30.4456C284.079 32.2713 282.915 34.3761 282.344 37.0733C282.302 37.37 282.312 37.4787 282.323 37.5873Z" fill="#FEFEFF"/>
<path d="M307.905 54.2744C306.043 52.3935 304.177 50.5169 302.32 48.6306C299.679 45.9468 299.655 42.7021 302.279 40.0233C304.026 38.2386 305.792 36.4711 307.577 34.724C310.134 32.2216 313.438 32.1765 315.986 34.6342C317.855 36.4374 319.691 38.2774 321.495 40.1453C323.973 42.7091 323.94 45.9731 321.43 48.5494C319.756 50.2668 318.002 51.9073 316.374 53.6657C315.924 54.1525 315.554 54.9373 315.553 55.5859C315.514 88.5624 315.514 121.539 315.55 154.515C315.55 155.124 315.872 155.867 316.291 156.316C317.996 158.14 319.813 159.858 321.558 161.644C323.904 164.044 323.901 167.401 321.546 169.812C319.696 171.705 317.823 173.577 315.93 175.429C313.443 177.861 310.166 177.836 307.675 175.38C305.79 173.521 303.911 171.655 302.061 169.761C299.764 167.411 299.752 164.057 302.038 161.712C303.956 159.746 305.918 157.823 307.979 155.754C308.109 155.527 308.122 155.428 308.134 155.328C308.143 149.58 308.16 143.831 308.16 138.083C308.161 110.439 308.158 82.795 308.173 54.9242C308.095 54.5564 308 54.4154 307.905 54.2744Z" fill="#FEFFFF"/>
<path d="M67.9908 32.0778C47.6554 32.0778 31.1317 48.5541 31.1317 69.1596C31.1317 89.4459 47.6554 105.942 67.9908 105.942H117.223V137H67.9908C30.4931 137 0 106.561 0 69.1596C0 31.4394 30.4931 1.00002 67.9908 1.00002H117.223V32.0778H67.9908ZM171.583 32.0778C165.876 32.0778 161.106 36.8252 161.106 42.8492C161.106 48.8733 165.876 53.6207 171.583 53.6207H200.5C223.689 53.6207 242.428 72.3312 242.428 95.1508V95.47C242.428 118.29 223.689 137 200.5 137H129.975V105.942H200.5C206.527 105.942 211.296 101.175 211.296 95.47V95.1508C211.296 89.4459 206.527 84.3793 200.5 84.3793H171.583C148.714 84.3793 129.975 65.988 129.975 42.8492C129.975 19.7105 148.714 1.00002 171.903 1.31917H242.428V32.0778H171.583ZM443.087 1.00002C470.088 1.00002 492 23.2013 492 49.8308C492 76.7794 470.088 98.6416 443.087 98.6416H416.406V137H385.274V1.00002H443.087ZM443.087 67.9029C452.926 67.9029 460.868 59.9639 460.868 49.8308C460.868 39.9968 452.926 32.0778 443.087 32.0778H416.406V67.9029H443.087Z" fill="white"/>
</svg>
